<svg xmlns="http://www.w3.org/2000/svg" version="1.0" width="142.000000pt" height="136.000000pt" viewBox="0 0 142.000000 136.000000" preserveAspectRatio="xMidYMid meet">
<g transform="translate(0.000000,136.000000) scale(0.100000,-0.100000)" fill="#000000" stroke="none">
<path d="M25 1350 l-30 -8 33 -1 c17 0 32 4 32 9 0 6 -1 9 -2 9 -2 -1 -16 -5 -33 -9z"/>
<path d="M58 1323 c6 -2 18 -2 25 0 6 3 1 5 -13 5 -14 0 -19 -2 -12 -5z"/>
<path d="M460 1270 c-21 -7 -21 -8 -5 -9 11 0 27 4 35 9 18 11 5 11 -30 0z"/>
<path d="M636 1271 c-3 -4 -35 -9 -71 -10 -36 -1 -89 -6 -117 -11 -27 -6 -55 -7 -61 -3 -5 3 -7 1 -4 -4 6 -10 -15 -25 -38 -27 -20 -2 -85 -59 -78 -69 4 -6 0 -8 -10 -4 -9 3 -16 3 -16 -1 4 -25 -3 -34 -21 -29 -11 3 -23 0 -27 -5 -3 -6 -1 -8 5 -4 6 3 13 2 17 -4 3 -5 1 -10 -5 -10 -15 0 -50 -61 -50 -88 0 -12 -7 -25 -15 -28 -8 -4 -15 -10 -15 -16 0 -5 6 -6 13 -2 9 6 9 4 -1 -7 -6 -7 -12 -24 -12 -37 0 -17 -4 -22 -15 -19 -8 4 -17 1 -21 -5 -4 -6 -3 -8 2 -5 6 3 16 1 24 -4 13 -8 13 -10 0 -19 -12 -8 -12 -10 -1 -10 10 0 11 -3 2 -13 -6 -8 -8 -17 -4 -20 3 -4 2 -7 -4 -7 -6 0 -9 -9 -6 -20 3 -11 10 -20 17 -20 6 0 4 -5 -4 -11 -13 -9 -13 -11 -1 -16 11 -4 9 -8 -7 -17 -15 -8 -19 -15 -12 -26 8 -13 10 -12 10 3 0 9 5 17 10 17 6 0 10 -20 10 -45 0 -29 4 -45 13 -45 9 0 8 -3 -2 -9 -9 -6 -10 -10 -2 -12 7 -3 13 -15 15 -29 1 -14 10 -37 20 -53 17 -25 17 -29 2 -46 -13 -15 -14 -18 -1 -18 8 0 12 4 9 8 -2 4 0 10 5 13 5 4 12 -7 16 -24 4 -16 11 -30 16 -30 6 0 8 -4 5 -9 -3 -5 -19 -7 -36 -5 -26 3 -31 0 -28 -15 2 -10 -1 -17 -7 -17 -5 1 -9 4 -8 8 2 5 -2 8 -8 8 -6 0 -9 -6 -6 -14 3 -8 -1 -17 -8 -20 -8 -3 -12 -12 -9 -21 5 -11 1 -14 -12 -10 -12 4 -11 1 4 -6 12 -7 22 -16 22 -21 0 -15 38 -8 44 8 3 8 10 12 16 9 5 -3 10 -1 10 4 0 6 -5 11 -11 11 -8 0 -7 6 2 17 12 15 12 16 -4 10 -9 -3 -17 -2 -17 4 0 5 7 12 15 15 8 4 13 10 10 14 -2 4 7 7 20 7 15 1 25 -5 25 -13 0 -8 5 -14 11 -14 5 0 8 -4 5 -9 -3 -5 1 -11 9 -15 9 -3 12 -12 9 -23 -5 -15 -4 -16 5 -3 7 10 11 11 11 2 0 -6 11 -22 25 -34 20 -18 23 -24 12 -37 -7 -8 -7 -12 -1 -8 6 3 22 -4 35 -16 13 -12 27 -21 31 -20 5 2 9 -3 9 -10 3 -29 5 -34 20 -50 10 -9 32 -19 50 -22 18 -3 38 -10 44 -14 5 -5 20 -7 33 -6 12 1 22 -2 22 -6 0 -4 14 -3 31 3 16 6 33 8 36 4 3 -3 11 -2 17 3 6 4 25 11 41 15 27 6 28 5 12 -8 -16 -12 -16 -14 -2 -20 9 -3 14 -2 11 3 -3 5 7 17 22 27 52 35 69 42 85 32 13 -7 15 -5 10 8 -4 11 -3 15 5 10 6 -3 13 -2 17 4 4 6 10 8 15 5 4 -3 13 2 20 10 7 8 20 15 29 15 14 0 14 2 1 10 -12 8 -12 10 5 10 11 0 27 5 35 11 12 9 11 10 -5 5 -20 -6 -20 -6 -1 9 21 16 40 20 32 7 -2 -4 4 -8 14 -8 13 0 17 7 15 24 -2 16 2 22 11 18 8 -3 11 0 7 10 -3 7 -1 14 5 14 6 0 18 3 28 7 11 4 15 3 10 -5 -4 -7 1 -10 15 -7 23 5 38 15 23 16 -22 2 -46 8 -51 13 -3 3 7 4 23 3 23 -2 29 2 29 19 0 11 8 28 18 38 9 10 17 13 17 7 0 -6 5 -11 11 -11 5 0 7 4 4 10 -3 5 5 25 19 43 14 19 31 48 37 65 6 18 14 30 17 28 4 -2 7 29 7 70 0 70 -6 90 -19 62 -3 -7 -5 -2 -4 12 1 14 -10 51 -25 82 -15 31 -27 62 -27 67 0 6 -5 11 -11 11 -5 0 -7 5 -4 10 3 6 0 13 -9 16 -8 3 -12 12 -10 19 3 7 0 16 -7 21 -8 5 -10 3 -4 -6 6 -9 4 -11 -4 -6 -7 5 -10 14 -7 22 3 8 2 13 -2 13 -20 -3 -32 2 -27 12 4 6 14 8 22 5 8 -4 11 -1 8 5 -4 6 -13 8 -20 5 -14 -5 -58 36 -50 47 3 4 2 5 -2 2 -12 -10 -31 16 -27 38 4 20 3 20 -4 3 -6 -14 -11 -16 -16 -8 -4 7 -5 16 -2 21 3 5 -2 8 -12 7 -10 0 -16 5 -14 14 2 8 0 12 -4 8 -4 -4 -21 5 -38 20 -17 15 -43 35 -56 45 -20 14 -21 17 -5 12 11 -3 16 -2 11 2 -4 4 -15 8 -24 9 -46 3 -52 5 -52 19 0 9 -6 12 -17 8 -11 -4 -14 -3 -9 5 4 8 2 10 -8 6 -8 -3 -25 0 -37 7 -13 7 -38 12 -56 11 -18 -1 -33 3 -33 8 0 5 7 7 15 4 8 -4 15 -4 15 -1 0 9 -29 16 -34 8z m35 -31 c97 -18 190 -72 293 -171 52 -50 111 -115 132 -145 20 -29 41 -51 47 -47 6 3 7 1 3 -6 -4 -6 2 -26 12 -44 55 -88 77 -231 48 -301 -7 -18 -45 -63 -82 -101 -38 -37 -68 -72 -66 -77 1 -5 -1 -7 -5 -5 -5 3 -37 -17 -73 -44 -71 -54 -77 -56 -77 -34 0 8 5 15 10 15 6 0 6 5 0 13 -6 6 -11 27 -11 45 0 19 -8 39 -17 46 -14 10 -12 15 20 46 19 18 35 39 35 46 0 6 11 22 24 35 13 14 27 41 31 62 4 20 11 37 15 37 4 0 10 12 13 27 3 16 10 51 16 78 12 58 20 225 10 219 -4 -2 -9 10 -13 28 -10 53 -14 27 -5 -47 10 -93 -4 -211 -35 -287 -14 -34 -22 -66 -19 -72 3 -6 3 -8 -2 -4 -4 4 -22 -16 -39 -45 -17 -29 -56 -75 -85 -102 -30 -28 -60 -55 -66 -62 -24 -23 -170 -91 -223 -104 -41 -10 -58 -10 -72 -2 -23 15 -30 0 -19 -37 7 -24 10 -24 13 3 0 6 12 13 26 14 49 4 85 11 113 22 15 6 39 14 52 17 14 3 25 10 25 15 0 4 18 14 40 20 21 7 38 15 35 18 -2 4 5 12 15 19 23 14 30 -1 30 -62 0 -23 5 -47 11 -53 11 -11 -55 -43 -135 -65 -25 -7 -46 -15 -46 -18 0 -11 -135 6 -160 20 -14 8 -34 14 -45 14 -13 1 -21 9 -23 25 -4 24 -46 66 -67 66 -5 1 -9 6 -8 13 2 7 -18 38 -45 71 -158 197 -210 491 -118 669 19 37 20 46 4 36 -7 -4 -8 -3 -4 5 4 6 12 9 17 6 5 -4 9 -2 9 3 0 4 16 27 35 49 19 22 32 43 29 46 -3 3 0 8 7 13 8 5 10 3 4 -6 -5 -8 -3 -11 6 -8 8 3 13 11 11 17 -1 6 3 10 10 9 7 -2 12 4 13 12 0 10 10 15 29 15 16 1 31 6 34 13 2 7 7 10 10 8 4 -2 30 2 57 9 61 17 144 18 216 5z m436 -864 c0 -8 -6 -12 -15 -9 -11 5 -11 7 0 14 7 5 13 9 14 9 0 0 1 -6 1 -14z m-229 -9 c18 -21 18 -125 0 -144 -31 -31 -48 -9 -48 61 0 35 3 71 6 80 7 19 28 21 42 3z m-713 -27 c0 -22 -29 -18 -33 3 -3 14 1 18 15 15 10 -2 18 -10 18 -18z m845 -50 c0 -5 -5 -10 -11 -10 -5 0 -7 5 -4 10 3 6 8 10 11 10 2 0 4 -4 4 -10z"/>
<path d="M556 1152 c-3 -2 -85 -13 -191 -25 -11 -1 -22 -4 -25 -7 -13 -13 -59 -28 -62 -20 -2 5 -13 -7 -26 -26 -24 -36 -19 -36 30 -1 52 38 177 57 363 54 146 -2 177 -6 222 -24 57 -23 63 -14 10 14 -33 17 -44 19 -133 26 -28 2 -56 7 -61 10 -9 6 -122 5 -127 -1z"/>
<path d="M964 989 c-3 -6 -2 -15 3 -20 5 -5 9 -1 9 11 0 23 -2 24 -12 9z"/>
<path d="M567 869 c7 -7 15 -10 18 -7 3 3 -2 9 -12 12 -14 6 -15 5 -6 -5z"/>
<path d="M479 863 c-1 -5 -1 -12 0 -17 1 -5 -5 -6 -14 -3 -20 8 -46 -3 -38 -16 4 -6 0 -8 -11 -4 -9 4 -14 3 -11 -2 3 -5 -4 -12 -15 -16 -11 -3 -20 -9 -20 -13 0 -4 -11 -20 -25 -36 -28 -32 -31 -41 -12 -30 8 5 7 2 -2 -9 -18 -22 -17 -172 1 -161 13 8 9 -21 -4 -36 -11 -12 -10 -12 5 0 15 11 20 11 30 0 7 -7 7 -10 1 -7 -6 4 -22 -6 -35 -21 -13 -14 -17 -21 -8 -14 9 6 19 8 23 4 4 -4 6 -1 4 7 -2 7 5 15 15 16 13 2 17 -1 13 -11 -3 -8 1 -14 9 -14 8 0 15 -4 15 -8 0 -5 22 -16 50 -25 105 -34 220 1 257 78 14 30 19 32 40 24 37 -14 86 -11 111 7 12 8 27 12 34 8 7 -4 8 -3 4 4 -4 6 1 23 10 37 12 18 15 40 12 78 -6 71 -36 110 -99 130 -46 15 -51 15 -91 -3 -23 -10 -46 -16 -50 -14 -4 3 -5 -3 -2 -13 4 -10 -4 -5 -19 12 -14 16 -23 33 -21 37 2 3 -6 4 -18 0 -19 -4 -21 -3 -11 9 10 12 1 14 -57 13 -38 0 -67 3 -64 8 3 4 3 8 0 8 -3 0 -7 -3 -7 -7z m127 -49 c51 -24 60 -48 28 -73 -26 -21 -26 -21 -51 -1 -39 31 -98 27 -134 -9 -24 -25 -29 -38 -29 -79 0 -115 110 -173 186 -97 13 13 24 35 24 49 l0 24 -47 -14 c-25 -8 -47 -13 -48 -12 -2 2 -6 17 -9 34 l-7 31 63 12 c87 18 88 18 88 39 0 24 46 71 77 78 63 16 132 -23 152 -85 9 -28 7 -41 -9 -78 -36 -81 -130 -95 -198 -27 -39 39 -39 39 -39 19 0 -8 2 -13 5 -11 2 3 13 -4 24 -14 19 -17 19 -22 8 -50 -39 -94 -176 -128 -269 -67 -93 62 -109 222 -30 293 61 54 148 70 215 38z m-38 -86 c17 -17 15 -31 -3 -24 -8 3 -15 1 -15 -4 0 -6 -12 -10 -26 -10 -17 0 -23 -4 -18 -12 5 -8 2 -9 -9 -5 -16 6 -16 5 -1 -18 13 -20 14 -28 4 -40 -11 -13 -14 -13 -27 2 -13 16 -13 16 -3 -5 10 -19 14 -21 27 -11 12 11 17 10 24 -2 6 -13 18 -14 53 -9 41 6 44 5 35 -12 -11 -20 -34 -25 -24 -5 3 6 -2 2 -11 -10 -9 -13 -25 -23 -34 -23 -30 0 -50 11 -43 24 4 7 1 6 -9 -2 -23 -18 -40 7 -46 68 -4 44 -2 52 26 80 32 32 78 40 100 18z"/>
<path d="M413 745 c0 -8 4 -12 9 -9 5 3 6 10 3 15 -9 13 -12 11 -12 -6z"/>
<path d="M746 724 c-23 -22 -21 -81 3 -94 31 -16 59 -12 75 12 32 45 10 98 -39 98 -13 0 -31 -7 -39 -16z m65 -11 c0 -5 2 -18 3 -30 2 -13 0 -21 -2 -18 -3 3 -11 -3 -18 -13 -10 -13 -17 -15 -31 -6 -21 13 -19 44 5 62 18 13 42 16 43 5z"/>
<path d="M470 646 c0 -2 7 -7 16 -10 8 -3 12 -2 9 4 -6 10 -25 14 -25 6z"/>
<path d="M160 708 c8 -40 39 -123 40 -105 0 14 -33 132 -41 140 -4 5 -3 -11 1 -35z"/>
<path d="M198 578 c5 -7 13 -28 17 -45 3 -18 10 -35 15 -38 5 -3 21 -30 35 -59 14 -30 40 -69 57 -87 16 -19 37 -44 45 -56 8 -13 20 -20 26 -16 6 4 8 0 4 -11 -4 -9 -3 -15 2 -11 5 3 12 -1 14 -7 4 -9 6 -8 6 3 1 9 -14 29 -31 46 -18 16 -43 42 -55 56 -27 32 -93 155 -93 174 0 8 -5 11 -11 8 -6 -4 -9 -1 -8 6 3 19 -11 49 -23 49 -7 0 -7 -4 0 -12z"/>
<path d="M1159 503 c-13 -16 -12 -17 4 -4 16 13 21 21 13 21 -2 0 -10 -8 -17 -17z"/>
<path d="M425 430 c-3 -5 -2 -10 4 -10 5 0 13 5 16 10 3 6 2 10 -4 10 -5 0 -13 -4 -16 -10z"/>
<path d="M468 423 c6 -2 9 -10 6 -15 -4 -7 -2 -8 5 -4 13 9 5 26 -12 25 -9 0 -8 -2 1 -6z"/>
<path d="M620 416 c0 -2 7 -7 16 -10 8 -3 12 -2 9 4 -6 10 -25 14 -25 6z"/>
<path d="M795 231 c-3 -5 -2 -12 3 -15 5 -3 9 1 9 9 0 17 -3 19 -12 6z"/>
<path d="M710 1276 c0 -2 9 -6 20 -9 11 -3 18 -1 14 4 -5 9 -34 13 -34 5z"/>
<path d="M1027 1258 c-15 -16 -15 -19 -2 -24 8 -4 15 -14 16 -23 0 -11 2 -12 6 -3 4 10 8 10 21 0 10 -7 14 -9 11 -5 -4 5 -3 22 1 40 6 28 4 32 -14 33 -12 0 -29 -8 -39 -18z m41 -16 c2 -7 -3 -12 -12 -12 -9 0 -16 7 -16 16 0 17 22 14 28 -4z"/>
<path d="M1108 1023 c7 -3 16 -2 19 1 4 3 -2 6 -13 5 -11 0 -14 -3 -6 -6z"/>
<path d="M1180 961 c0 -6 4 -13 10 -16 6 -3 7 1 4 9 -7 18 -14 21 -14 7z"/>
<path d="M1154 939 c-3 -6 -2 -15 3 -20 5 -5 9 -1 9 11 0 23 -2 24 -12 9z"/>
<path d="M1184 900 c0 -16 3 -27 6 -25 8 5 6 42 -1 50 -3 2 -5 -8 -5 -25z"/>
<path d="M1261 484 c0 -11 3 -14 6 -6 3 7 2 16 -1 19 -3 4 -6 -2 -5 -13z"/>
<path d="M176 438 c3 -5 10 -6 15 -3 13 9 11 12 -6 12 -8 0 -12 -4 -9 -9z"/>
<path d="M100 379 c0 -5 5 -7 10 -4 6 3 10 8 10 11 0 2 -4 4 -10 4 -5 0 -10 -5 -10 -11z"/>
</g>
</svg>